<svg xmlns:rdf="http://www.w3.org/1999/02/22-rdf-syntax-ns#" xmlns="http://www.w3.org/2000/svg" xml:space="preserve" height="72.1" viewBox="0 0 589.69999 72.100001" width="589.7" version="1.1" y="0px" x="0px" xmlns:cc="http://creativecommons.org/ns#" xmlns:dc="http://purl.org/dc/elements/1.1/"><g fill="#fff" transform="translate(-8.4,-5.8)"><path d="m33.2 26.1 14.9 20.7h-15.2l-11.7-17.4v17.5h-12.7v-40.4h12.7v17l11.8-17h15.1l-14.9 19.6z"/><path d="m77.4 40.8h-13.4l-2 6.1h-13.3l14.8-40.4h14.6l14.7 40.4h-13.4l-2-6.1zm-3-9.5-3.7-11.3-3.6 11.2h7.3z"/><path d="m127.3 6.5v10h-10.7v30.3h-12.7v-30.2h-10.6v-10h34z"/><path d="m168.1 6.5v40.4h-12.7v-15.7h-12v15.7h-12.7v-40.4h12.7v14.5h12v-14.5h12.7z"/><path d="m199.6 40.8h-13.5l-2 6.1h-13.3l14.8-40.4h14.6l14.8 40.4h-13.3l-2.1-6.1zm-3-9.5-3.7-11.3-3.6 11.2h7.3z"/><path d="m242.5 26.1 14.9 20.7h-15.2l-11.7-17.5v17.5h-12.7v-40.3h12.7v17l11.9-17h15.1l-15 19.6z"/><path d="m286.7 40.8h-13.5l-2 6.1h-13.2l14.8-40.4h14.6l14.7 40.4h-13.3l-2.1-6.1zm-3-9.5-3.7-11.3-3.6 11.2h7.3z"/><path d="m317.6 37.3h12.2v9.6h-24.9v-40.4h12.7v30.8z"/><path d="m346.4 6.5v40.4h-12.7v-40.4h12.7z"/><path d="m391.2 41.3c-1.2 1.9-2.9 3.3-5.2 4.4s-5 1.6-8.2 1.6c-4.8 0-8.8-1.1-11.9-3.4s-4.8-5.6-5.1-9.9h13.5c0.2 2.3 1.2 3.5 3.1 3.5 0.6 0 1.2-0.2 1.6-0.5s0.6-0.8 0.6-1.5c0-0.9-0.5-1.7-1.5-2.3s-2.5-1.2-4.7-1.9c-2.5-0.8-4.7-1.7-6.4-2.6s-3.2-2.2-4.4-3.9-1.9-3.9-1.9-6.7c0-2.6 0.7-4.9 2-6.7s3.2-3.2 5.5-4.2c2.3-0.9 5-1.4 7.9-1.4 4.8 0 8.7 1.1 11.5 3.4 2.9 2.2 4.4 5.5 4.7 9.7h-13.6c-0.2-2.1-1.1-3.2-2.6-3.2-0.5 0-1 0.2-1.3 0.5s-0.5 0.8-0.5 1.5c0 0.9 0.5 1.6 1.5 2.1 1 0.6 2.5 1.2 4.5 1.9 2.6 0.9 4.7 1.8 6.4 2.7s3.2 2.2 4.4 3.9c1.3 1.7 1.9 3.9 1.9 6.6 0 2.4-0.6 4.5-1.8 6.4z"/><path d="m425.6 8.1c2.8 1.3 5 3.2 6.7 5.6s2.9 5.2 3.4 8.4h-13.3c-0.6-1.3-1.5-2.4-2.6-3.1s-2.4-1.1-3.8-1.1c-2.1 0-3.8 0.8-5 2.4s-1.9 3.7-1.9 6.4 0.6 4.8 1.9 6.4c1.2 1.6 2.9 2.4 5 2.4 1.4 0 2.7-0.4 3.8-1.1s2-1.8 2.6-3.1h13.3c-0.6 3.2-1.7 6-3.4 8.4s-4 4.2-6.7 5.6-5.9 2-9.4 2c-4.1 0-7.6-0.9-10.6-2.6s-5.3-4.2-6.9-7.3-2.4-6.7-2.4-10.7 0.8-7.5 2.4-10.7c1.6-3.1 3.9-5.5 6.9-7.3 3-1.7 6.5-2.6 10.6-2.6 3.5 0 6.7 0.7 9.4 2z"/><path d="m477.7 6.5v40.4h-12.7v-15.7h-12v15.7h-12.7v-40.4h12.7v14.5h12v-14.5h12.7z"/><path d="m513.5 8.5c3.2 1.8 5.7 4.2 7.5 7.4s2.8 6.7 2.8 10.7-0.9 7.5-2.8 10.7c-1.8 3.2-4.4 5.6-7.5 7.4-3.2 1.8-6.6 2.7-10.4 2.7s-7.3-0.9-10.5-2.7-5.7-4.3-7.6-7.4c-1.9-3.2-2.8-6.7-2.8-10.7s0.9-7.5 2.8-10.7 4.4-5.6 7.6-7.4 6.7-2.7 10.5-2.7 7.2 0.9 10.4 2.7zm-16.3 11.5c-1.4 1.6-2.1 3.8-2.1 6.6 0 2.7 0.7 4.9 2.1 6.5s3.3 2.4 5.9 2.4c2.5 0 4.4-0.8 5.8-2.4s2.1-3.8 2.1-6.5c0-2.8-0.7-5-2.1-6.6s-3.3-2.4-5.8-2.4c-2.6-0.1-4.5 0.7-5.9 2.4z"/><path d="m558.4 8.5c3.2 1.8 5.7 4.2 7.5 7.4s2.8 6.7 2.8 10.7-0.9 7.5-2.8 10.7c-1.8 3.2-4.4 5.6-7.5 7.4-3.2 1.8-6.6 2.7-10.4 2.7s-7.3-0.9-10.5-2.7-5.7-4.3-7.6-7.4c-1.9-3.2-2.8-6.7-2.8-10.7s0.9-7.5 2.8-10.7 4.4-5.6 7.6-7.4 6.7-2.7 10.5-2.7 7.2 0.9 10.4 2.7zm-16.3 11.5c-1.4 1.6-2.1 3.8-2.1 6.6 0 2.7 0.7 4.9 2.1 6.5s3.3 2.4 5.9 2.4c2.5 0 4.4-0.8 5.8-2.4s2.1-3.8 2.1-6.5c0-2.8-0.7-5-2.1-6.6s-3.3-2.4-5.8-2.4c-2.6-0.1-4.5 0.7-5.9 2.4z"/><path d="m585.9 37.3h12.2v9.6h-24.9v-40.4h12.7v30.8z"/><path d="m10.2 75.8c-1.2-1.2-1.8-2.7-1.8-4.7v-12.3c0-1.9 0.6-3.5 1.8-4.7s2.8-1.8 4.8-1.8 3.6 0.6 4.8 1.8 1.8 2.7 1.8 4.6v0.4c0 0.2-0.1 0.4-0.4 0.4h-0.4c-0.2 0-0.4-0.1-0.4-0.3v-0.5c0-1.6-0.5-2.9-1.5-3.9s-2.3-1.5-4-1.5-3 0.5-4 1.5-1.5 2.3-1.5 3.9v12.4c0 1.6 0.5 3 1.5 4s2.3 1.5 4 1.5 3-0.5 4-1.5 1.5-2.3 1.5-4v-0.4c0-0.2 0.1-0.4 0.4-0.4h0.4c0.2 0 0.4 0.1 0.4 0.3v0.4c0 1.9-0.6 3.5-1.8 4.7s-2.8 1.8-4.8 1.8c-2 0.1-3.6-0.5-4.8-1.7z"/><path d="m39.9 53.7h-11.1c-0.1 0-0.1 0-0.1 0.1v10.6c0 0.1 0 0.1 0.1 0.1h7.7c0.2 0 0.4 0.1 0.4 0.4v0.2c0 0.2-0.1 0.4-0.4 0.4h-7.7c-0.1 0-0.1 0-0.1 0.1v10.6c0 0.1 0 0.1 0.1 0.1h11.2c0.2 0 0.4 0.1 0.4 0.4v0.3c0 0.2-0.1 0.4-0.4 0.4h-12c-0.2 0-0.4-0.1-0.4-0.4v-24c0-0.2 0.1-0.4 0.4-0.4h12c0.2 0 0.4 0.1 0.4 0.4v0.3c-0.1 0.2-0.3 0.4-0.5 0.4z"/><path d="m45.9 77v-24c0-0.2 0.1-0.4 0.4-0.4h0.4c0.2 0 0.4 0.1 0.4 0.2l11 21.8 0.1 0.1 0.1-0.1v-21.6c0-0.2 0.1-0.4 0.4-0.4h0.4c0.2 0 0.4 0.1 0.4 0.4v24c0 0.2-0.1 0.4-0.4 0.4h-0.4c-0.2 0-0.4-0.1-0.4-0.2l-11-21.8-0.1-0.1-0.1 0.1v21.6c0 0.2-0.1 0.4-0.4 0.4h-0.4c-0.3-0.1-0.4-0.2-0.4-0.4z"/><path d="m78 53v0.3c0 0.2-0.1 0.4-0.4 0.4h-5.9c-0.1 0-0.1 0-0.1 0.1v23.2c0 0.2-0.1 0.4-0.4 0.4h-0.4c-0.2 0-0.4-0.1-0.4-0.4v-23.2c0-0.1 0-0.1-0.1-0.1h-5.6c-0.2 0-0.4-0.1-0.4-0.4v-0.3c0-0.2 0.1-0.4 0.4-0.4h12.9c0.3 0.1 0.4 0.2 0.4 0.4z"/><path d="m95.5 53.7h-11.1c-0.1 0-0.1 0-0.1 0.1v10.6c0 0.1 0 0.1 0.1 0.1h7.7c0.2 0 0.4 0.1 0.4 0.4v0.2c0 0.2-0.1 0.4-0.4 0.4h-7.7c-0.1 0-0.1 0-0.1 0.1v10.6c0 0.1 0 0.1 0.1 0.1h11.2c0.2 0 0.4 0.1 0.4 0.4v0.3c0 0.2-0.1 0.4-0.4 0.4h-12c-0.2 0-0.4-0.1-0.4-0.4v-24c0-0.2 0.1-0.4 0.4-0.4h12c0.2 0 0.4 0.1 0.4 0.4v0.3c-0.1 0.2-0.2 0.4-0.5 0.4z"/><path d="m113.5 77-5-11.6c0-0.1-0.1-0.1-0.1-0.1h-5.7c-0.1 0-0.1 0-0.1 0.1v11.6c0 0.2-0.1 0.4-0.4 0.4h-0.4c-0.2 0-0.4-0.1-0.4-0.4v-24c0-0.2 0.1-0.4 0.4-0.4h6.7c1.7 0 3.1 0.6 4.2 1.8s1.6 2.7 1.6 4.6c0 1.7-0.4 3.1-1.3 4.2-0.8 1.1-2 1.8-3.4 2-0.1 0-0.2 0.1-0.1 0.2l4.9 11.5v0.1c0 0.2-0.1 0.3-0.3 0.3h-0.3c-0.1 0-0.2-0.1-0.3-0.3zm-10.9-23.3v10.5c0 0.1 0 0.1 0.1 0.1h5.9c1.4 0 2.6-0.5 3.4-1.5 0.9-1 1.3-2.3 1.3-3.9s-0.4-2.9-1.3-3.9-2-1.5-3.4-1.5h-5.9c-0.1 0.1-0.1 0.1-0.1 0.2z"/><path d="m139.1 53.7h-11.1c-0.1 0-0.1 0-0.1 0.1v10.6c0 0.1 0 0.1 0.1 0.1h7.7c0.2 0 0.4 0.1 0.4 0.4v0.2c0 0.2-0.1 0.4-0.4 0.4h-7.7c-0.1 0-0.1 0-0.1 0.1v11.4c0 0.2-0.1 0.4-0.4 0.4h-0.4c-0.2 0-0.4-0.1-0.4-0.4v-24c0-0.2 0.1-0.4 0.4-0.4h11.9c0.2 0 0.4 0.1 0.4 0.4v0.3c0 0.2-0.1 0.4-0.3 0.4z"/><path d="m146.1 76.7c-1-0.6-1.8-1.3-2.4-2.4-0.6-1-0.8-2.2-0.8-3.5v-11.7c0-1.3 0.3-2.5 0.8-3.5 0.6-1 1.3-1.8 2.4-2.4s2.2-0.8 3.4-0.8c1.3 0 2.5 0.3 3.5 0.8s1.8 1.4 2.4 2.4 0.8 2.2 0.8 3.5v11.8c0 1.3-0.3 2.5-0.8 3.5-0.6 1-1.4 1.8-2.4 2.4s-2.2 0.8-3.5 0.8-2.4-0.3-3.4-0.9zm7.5-1.7c1-1 1.6-2.4 1.6-4.1v-11.8c0-1.7-0.5-3.1-1.6-4.1-1-1-2.4-1.6-4.1-1.6s-3 0.5-4 1.6c-1 1-1.5 2.4-1.5 4.1v11.9c0 1.7 0.5 3.1 1.5 4.1s2.4 1.6 4 1.6c1.7-0.1 3.1-0.6 4.1-1.7z"/><path d="m174.5 77-5-11.6c0-0.1-0.1-0.1-0.1-0.1h-5.7c-0.1 0-0.1 0-0.1 0.1v11.6c0 0.2-0.1 0.4-0.4 0.4h-0.4c-0.2 0-0.4-0.1-0.4-0.4v-24c0-0.2 0.1-0.4 0.4-0.4h6.7c1.7 0 3.1 0.6 4.2 1.8s1.6 2.7 1.6 4.6c0 1.7-0.4 3.1-1.3 4.2-0.8 1.1-2 1.8-3.4 2-0.1 0-0.2 0.1-0.1 0.2l4.9 11.5v0.1c0 0.2-0.1 0.3-0.3 0.3h-0.3c-0.1 0-0.2-0.1-0.3-0.3zm-10.9-23.3v10.5c0 0.1 0 0.1 0.1 0.1h5.9c1.4 0 2.6-0.5 3.4-1.5 0.9-1 1.3-2.3 1.3-3.9s-0.4-2.9-1.3-3.9-2-1.5-3.4-1.5h-5.9c-0.1 0.1-0.1 0.1-0.1 0.2z"/><path d="m199.1 54.4c1.1 1.2 1.6 2.8 1.6 4.7s-0.5 3.5-1.6 4.6c-1.1 1.2-2.5 1.8-4.2 1.8h-6.1c-0.1 0-0.1 0-0.1 0.1v11.4c0 0.2-0.1 0.4-0.4 0.4h-0.3c-0.2 0-0.4-0.1-0.4-0.4v-24c0-0.2 0.1-0.4 0.4-0.4h6.9c1.7 0 3.1 0.6 4.2 1.8zm-0.8 8.6c0.9-1 1.3-2.3 1.3-4 0-1.6-0.4-3-1.3-4s-2-1.5-3.4-1.5h-6.1c-0.1 0-0.1 0-0.1 0.1v10.7c0 0.1 0 0.1 0.1 0.1h6.1c1.4 0.1 2.5-0.4 3.4-1.4z"/><path d="m218 53.7h-11.2c-0.1 0-0.1 0-0.1 0.1v10.6c0 0.1 0 0.1 0.1 0.1h7.7c0.2 0 0.4 0.1 0.4 0.4v0.2c0 0.2-0.1 0.4-0.4 0.4h-7.7c-0.1 0-0.1 0-0.1 0.1v10.6c0 0.1 0 0.1 0.1 0.1h11.2c0.2 0 0.4 0.1 0.4 0.4v0.3c0 0.2-0.1 0.4-0.4 0.4h-12c-0.2 0-0.4-0.1-0.4-0.4v-24c0-0.2 0.1-0.4 0.4-0.4h12c0.2 0 0.4 0.1 0.4 0.4v0.3c0 0.2-0.1 0.4-0.4 0.4z"/><path d="m236.1 77-5-11.6c0-0.1-0.1-0.1-0.1-0.1h-5.7c-0.1 0-0.1 0-0.1 0.1v11.6c0 0.2-0.1 0.4-0.4 0.4h-0.4c-0.2 0-0.4-0.1-0.4-0.4v-24c0-0.2 0.1-0.4 0.4-0.4h6.7c1.7 0 3.1 0.6 4.2 1.8s1.6 2.7 1.6 4.6c0 1.7-0.4 3.1-1.3 4.2-0.8 1.1-2 1.8-3.4 2-0.1 0-0.2 0.1-0.1 0.2l4.9 11.5v0.1c0 0.2-0.1 0.3-0.3 0.3h-0.3c-0.1 0-0.3-0.1-0.3-0.3zm-11-23.3v10.5c0 0.1 0 0.1 0.1 0.1h5.9c1.4 0 2.6-0.5 3.4-1.5 0.9-1 1.3-2.3 1.3-3.9s-0.4-2.9-1.3-3.9-2-1.5-3.4-1.5h-5.9c-0.1 0.1-0.1 0.1-0.1 0.2z"/><path d="m254.6 53.7h-11.1c-0.1 0-0.1 0-0.1 0.1v10.6c0 0.1 0 0.1 0.1 0.1h7.7c0.2 0 0.4 0.1 0.4 0.4v0.2c0 0.2-0.1 0.4-0.4 0.4h-7.7c-0.1 0-0.1 0-0.1 0.1v11.4c0 0.2-0.1 0.4-0.4 0.4h-0.4c-0.2 0-0.4-0.1-0.4-0.4v-24c0-0.2 0.1-0.4 0.4-0.4h11.9c0.2 0 0.4 0.1 0.4 0.4v0.3c0 0.2-0.1 0.4-0.3 0.4z"/><path d="m261.6 76.7c-1-0.6-1.8-1.3-2.4-2.4-0.6-1-0.8-2.2-0.8-3.5v-11.7c0-1.3 0.3-2.5 0.8-3.5 0.6-1 1.3-1.8 2.4-2.4s2.2-0.8 3.4-0.8c1.3 0 2.5 0.3 3.5 0.8s1.8 1.4 2.4 2.4 0.8 2.2 0.8 3.5v11.8c0 1.3-0.3 2.5-0.8 3.5-0.6 1-1.4 1.8-2.4 2.4s-2.2 0.8-3.5 0.8-2.4-0.3-3.4-0.9zm7.5-1.7c1-1 1.6-2.4 1.6-4.1v-11.8c0-1.7-0.5-3.1-1.6-4.1-1-1-2.4-1.6-4.1-1.6s-3 0.5-4 1.6c-1 1-1.5 2.4-1.5 4.1v11.9c0 1.7 0.5 3.1 1.5 4.1s2.4 1.6 4 1.6c1.7-0.1 3.1-0.6 4.1-1.7z"/><path d="m290 77-5-11.6c0-0.1-0.1-0.1-0.1-0.1h-5.7c-0.1 0-0.1 0-0.1 0.1v11.6c0 0.2-0.1 0.4-0.4 0.4h-0.4c-0.2 0-0.4-0.1-0.4-0.4v-24c0-0.2 0.1-0.4 0.4-0.4h6.7c1.7 0 3.1 0.6 4.2 1.8s1.6 2.7 1.6 4.6c0 1.7-0.4 3.1-1.3 4.2-0.8 1.1-2 1.8-3.4 2-0.1 0-0.2 0.1-0.1 0.2l4.9 11.5v0.1c0 0.2-0.1 0.3-0.3 0.3h-0.3c-0.1 0-0.2-0.1-0.3-0.3zm-11-23.3v10.5c0 0.1 0 0.1 0.1 0.1h5.9c1.4 0 2.6-0.5 3.4-1.5 0.9-1 1.3-2.3 1.3-3.9s-0.4-2.9-1.3-3.9-2-1.5-3.4-1.5h-5.9c0 0.1-0.1 0.1-0.1 0.2z"/><path d="m296.2 77v-24c0-0.2 0.1-0.4 0.4-0.4h0.4c0.2 0 0.4 0.1 0.4 0.2l5.9 11.4 0.1 0.1s0.1 0 0.1-0.1l5.9-11.4c0.1-0.2 0.2-0.2 0.4-0.2h0.4c0.2 0 0.4 0.1 0.4 0.4v24c0 0.2-0.1 0.4-0.4 0.4h-0.4c-0.2 0-0.4-0.1-0.4-0.4v-21.8c0-0.1 0-0.1-0.1-0.1s-0.1 0-0.1 0.1l-5.2 10.5c-0.1 0.2-0.2 0.2-0.4 0.2h-0.2c-0.2 0-0.4-0.1-0.4-0.2l-5.5-10.5-0.1-0.1s-0.1 0-0.1 0.1v21.8c0 0.2-0.1 0.4-0.4 0.4h-0.4c-0.1-0.1-0.3-0.2-0.3-0.4z"/><path d="m317.7 77v-24c0-0.2 0.1-0.4 0.4-0.4h0.4c0.2 0 0.4 0.1 0.4 0.4v24c0 0.2-0.1 0.4-0.4 0.4h-0.4c-0.3-0.1-0.4-0.2-0.4-0.4z"/><path d="m325.8 77v-24c0-0.2 0.1-0.4 0.4-0.4h0.4c0.2 0 0.4 0.1 0.4 0.2l11 21.8 0.1 0.1 0.1-0.1v-21.6c0-0.2 0.1-0.4 0.4-0.4h0.4c0.2 0 0.4 0.1 0.4 0.4v24c0 0.2-0.1 0.4-0.4 0.4h-0.4c-0.2 0-0.4-0.1-0.4-0.2l-11-21.8-0.1-0.1-0.1 0.1v21.6c0 0.2-0.1 0.4-0.4 0.4h-0.4c-0.3-0.1-0.4-0.2-0.4-0.4z"/><path d="m347.3 75.8c-1.2-1.2-1.8-2.7-1.8-4.6v-12.5c0-1.9 0.6-3.4 1.8-4.6s2.8-1.7 4.8-1.7 3.6 0.6 4.7 1.7 1.8 2.7 1.8 4.6v1.1c0 0.2-0.1 0.4-0.4 0.4h-0.4c-0.2 0-0.4-0.1-0.4-0.4v-1.1c0-1.6-0.5-2.9-1.5-3.8-1-1-2.3-1.4-4-1.4s-3 0.5-4 1.5-1.5 2.3-1.5 3.9v12.6c0 1.6 0.5 2.9 1.5 3.9s2.3 1.5 4 1.5c1.6 0 3-0.5 4-1.4 1-1 1.5-2.2 1.5-3.8v-4.8c0-0.1 0-0.1-0.1-0.1h-4.7c-0.2 0-0.4-0.1-0.4-0.4v-0.3c0-0.2 0.1-0.4 0.4-0.4h5.6c0.2 0 0.4 0.1 0.4 0.4v5.5c0 1.9-0.6 3.5-1.8 4.6s-2.8 1.7-4.7 1.7-3.6-0.9-4.8-2.1z"/><path d="m383.1 77-1.4-5c0-0.1-0.1-0.1-0.2-0.1h-9.5c-0.1 0-0.2 0-0.2 0.1l-1.4 5c0 0.2-0.2 0.3-0.4 0.3h-0.3c-0.1 0-0.2 0-0.3-0.1s-0.1-0.2-0.1-0.3l6.6-24c0-0.2 0.2-0.3 0.4-0.3h0.5c0.2 0 0.3 0.1 0.4 0.3l6.7 24v0.1c0 0.2-0.1 0.3-0.4 0.3h-0.3c0.1 0 0-0.1-0.1-0.3zm-10.8-6l0.1 0.1h8.9s0.1 0 0.1-0.1v-0.1l-4.5-16.4-0.1-0.1s-0.1 0-0.1 0.1l-4.4 16.5c-0.1-0.1-0.1-0.1 0 0z"/><path d="m401.2 77-5-11.6c0-0.1-0.1-0.1-0.1-0.1h-5.7c-0.1 0-0.1 0-0.1 0.1v11.6c0 0.2-0.1 0.4-0.4 0.4h-0.4c-0.2 0-0.4-0.1-0.4-0.4v-24c0-0.2 0.1-0.4 0.4-0.4h6.7c1.7 0 3.1 0.6 4.2 1.8s1.6 2.7 1.6 4.6c0 1.7-0.4 3.1-1.3 4.2-0.8 1.1-2 1.8-3.4 2-0.1 0-0.2 0.1-0.1 0.2l4.9 11.5v0.1c0 0.2-0.1 0.3-0.3 0.3h-0.3c-0.1 0-0.2-0.1-0.3-0.3zm-11-23.3v10.5c0 0.1 0 0.1 0.1 0.1h5.9c1.4 0 2.6-0.5 3.4-1.5 0.9-1 1.3-2.3 1.3-3.9s-0.4-2.9-1.3-3.9-2-1.5-3.4-1.5h-5.9c0 0.1-0.1 0.1-0.1 0.2z"/><path d="m419.1 53v0.3c0 0.2-0.1 0.4-0.4 0.4h-5.9c-0.1 0-0.1 0-0.1 0.1v23.2c0 0.2-0.1 0.4-0.4 0.4h-0.4c-0.2 0-0.4-0.1-0.4-0.4v-23.2c0-0.1 0-0.1-0.1-0.1h-5.6c-0.2 0-0.4-0.1-0.4-0.4v-0.3c0-0.2 0.1-0.4 0.4-0.4h12.9c0.3 0.1 0.4 0.2 0.4 0.4z"/><path d="m424.8 75.9c-1.2-1.1-1.8-2.6-1.8-4.4v-0.9c0-0.2 0.1-0.4 0.4-0.4h0.3c0.2 0 0.4 0.1 0.4 0.4v0.9c0 1.6 0.5 2.8 1.5 3.8s2.4 1.4 4.2 1.4c1.7 0 3-0.5 4-1.4s1.5-2.1 1.5-3.7c0-1-0.2-1.8-0.6-2.5s-1-1.3-1.9-1.9c-0.8-0.6-2-1.3-3.4-2.1-1.5-0.8-2.6-1.5-3.4-2.1s-1.4-1.2-1.9-2-0.7-1.7-0.7-2.9c0-1.8 0.6-3.2 1.7-4.2s2.6-1.5 4.5-1.5c2.1 0 3.7 0.6 4.9 1.7s1.8 2.6 1.8 4.5v0.9c0 0.2-0.1 0.4-0.4 0.4h-0.4c-0.2 0-0.4-0.1-0.4-0.4v-0.8c0-1.6-0.5-2.9-1.5-3.8-1-1-2.4-1.4-4.1-1.4-1.6 0-2.8 0.4-3.7 1.2s-1.4 2-1.4 3.5c0 0.9 0.2 1.7 0.6 2.4 0.4 0.6 0.9 1.2 1.7 1.7 0.7 0.5 1.8 1.2 3.3 2 1.6 0.9 2.8 1.6 3.7 2.3s1.5 1.4 2 2.2 0.7 1.7 0.7 2.8c0 1.9-0.6 3.3-1.7 4.4-1.2 1.1-2.8 1.7-4.8 1.7-2.3-0.1-3.9-0.7-5.1-1.8z"/><path d="m463.3 77.1c0 0.1-0.1 0.2-0.3 0.2h-0.4c-0.2 0-0.3-0.1-0.5-0.2-0.9-1.1-1.7-2.1-2.3-3-0.1-0.1-0.1-0.1-0.2 0-1.1 1.3-2.1 2.2-3 2.7s-2.1 0.8-3.3 0.8c-1.8 0-3.3-0.5-4.3-1.4-1.1-1-1.6-2.3-1.6-4 0-1.6 0.4-3.1 1.3-4.2 0.9-1.2 2.1-2.4 3.7-3.7 0.1 0 0.1-0.1 0-0.2-0.9-1.3-1.6-2.3-2.1-3.1-0.5-0.7-0.8-1.4-0.9-1.9-0.2-0.5-0.2-1.1-0.2-1.7 0-1.5 0.4-2.7 1.3-3.6s2-1.4 3.4-1.4 2.6 0.4 3.5 1.3 1.3 2 1.3 3.4c0 1-0.2 1.9-0.6 2.7s-0.9 1.5-1.6 2.2-1.4 1.4-2.5 2.3c-0.1 0.1-0.1 0.1 0 0.2 0.8 1.1 1.4 1.9 1.9 2.6l1.1 1.5c0.8 1.1 1.7 2.2 2.7 3.5 0.1 0.1 0.1 0.1 0.2 0 0.6-0.8 1.3-1.8 2-3 0.1-0.2 0.3-0.2 0.5-0.1l0.2 0.2c0.2 0.1 0.2 0.3 0.1 0.5-0.8 1.2-1.5 2.3-2.3 3.3v0.2l0.9 1.3c0.4 0.6 1 1.4 1.7 2.4 0.3 0 0.3 0.1 0.3 0.2zm-6.9-1.2c0.8-0.5 1.8-1.4 2.7-2.6v-0.2c-0.6-0.7-1.2-1.6-1.9-2.6-0.1-0.1-0.3-0.4-0.5-0.6-0.9-1.1-2-2.7-3.5-4.7 0-0.1-0.1-0.1-0.2 0-1.5 1.2-2.6 2.3-3.4 3.4s-1.2 2.3-1.2 3.7 0.4 2.5 1.3 3.3 2.1 1.2 3.6 1.2c1.2-0.2 2.2-0.4 3.1-0.9zm-5.1-21.4c-0.7 0.7-1 1.6-1 2.9 0 0.8 0.2 1.5 0.5 2.2 0.4 0.7 1.2 2 2.4 3.7 0.1 0.1 0.1 0.1 0.2 0 1.4-1.1 2.5-2.2 3.2-3.1s1.1-2 1.1-3.1-0.3-2-1-2.7-1.6-1-2.7-1-2 0.4-2.7 1.1z"/><path d="m477.1 75.8c-1.2-1.2-1.8-2.7-1.8-4.7v-12.3c0-1.9 0.6-3.5 1.8-4.7s2.8-1.8 4.8-1.8 3.6 0.6 4.8 1.8 1.8 2.7 1.8 4.6v0.4c0 0.2-0.1 0.4-0.4 0.4h-0.4c-0.2 0-0.4-0.1-0.4-0.3v-0.5c0-1.6-0.5-2.9-1.5-3.9s-2.3-1.5-4-1.5-3 0.5-4 1.5-1.5 2.3-1.5 3.9v12.4c0 1.6 0.5 3 1.5 4s2.3 1.5 4 1.5 3-0.5 4-1.5 1.5-2.3 1.5-4v-0.4c0-0.2 0.1-0.4 0.4-0.4h0.4c0.2 0 0.4 0.1 0.4 0.3v0.4c0 1.9-0.6 3.5-1.8 4.7s-2.8 1.8-4.8 1.8c-2 0.1-3.6-0.5-4.8-1.7z"/><path d="m496 75.6c-1.2-1.3-1.8-3-1.8-5.1v-17.5c0-0.2 0.1-0.4 0.4-0.4h0.4c0.2 0 0.4 0.1 0.4 0.4v17.7c0 1.8 0.5 3.2 1.5 4.3s2.4 1.6 4.1 1.6 3.1-0.5 4.1-1.6 1.6-2.5 1.6-4.3v-17.7c0-0.2 0.1-0.4 0.4-0.4h0.4c0.2 0 0.4 0.1 0.4 0.4v17.5c0 1.4-0.3 2.6-0.8 3.7-0.6 1.1-1.4 1.9-2.4 2.5s-2.2 0.9-3.5 0.9c-2.3 0-3.9-0.7-5.2-2z"/><path d="m514.4 77v-24c0-0.2 0.1-0.4 0.4-0.4h0.4c0.2 0 0.4 0.1 0.4 0.4v23.1c0 0.1 0 0.1 0.1 0.1h10.6c0.2 0 0.4 0.1 0.4 0.4v0.4c0 0.2-0.1 0.4-0.4 0.4h-11.5c-0.3-0.1-0.4-0.2-0.4-0.4z"/><path d="m542 53v0.3c0 0.2-0.1 0.4-0.4 0.4h-5.9c-0.1 0-0.1 0-0.1 0.1v23.2c0 0.2-0.1 0.4-0.4 0.4h-0.4c-0.2 0-0.4-0.1-0.4-0.4v-23.2c0-0.1 0-0.1-0.1-0.1h-5.6c-0.2 0-0.4-0.1-0.4-0.4v-0.3c0-0.2 0.1-0.4 0.4-0.4h12.9c0.3 0.1 0.4 0.2 0.4 0.4z"/><path d="m548.8 75.6c-1.2-1.3-1.8-3-1.8-5.1v-17.5c0-0.2 0.1-0.4 0.4-0.4h0.4c0.2 0 0.4 0.1 0.4 0.4v17.7c0 1.8 0.5 3.2 1.5 4.3s2.4 1.6 4.1 1.6 3.1-0.5 4.1-1.6 1.6-2.5 1.6-4.3v-17.7c0-0.2 0.1-0.4 0.4-0.4h0.4c0.2 0 0.4 0.1 0.4 0.4v17.5c0 1.4-0.3 2.6-0.8 3.7-0.6 1.1-1.4 1.9-2.4 2.5s-2.2 0.9-3.5 0.9c-2.4 0-4-0.7-5.2-2z"/><path d="m579.2 77-5-11.6c0-0.1-0.1-0.1-0.1-0.1h-5.7c-0.1 0-0.1 0-0.1 0.1v11.6c0 0.2-0.1 0.4-0.4 0.4h-0.4c-0.2 0-0.4-0.1-0.4-0.4v-24c0-0.2 0.1-0.4 0.4-0.4h6.7c1.7 0 3.1 0.6 4.2 1.8s1.6 2.7 1.6 4.6c0 1.7-0.4 3.1-1.3 4.2-0.8 1.1-2 1.8-3.4 2-0.1 0-0.2 0.1-0.1 0.2l4.9 11.5v0.1c0 0.2-0.1 0.3-0.3 0.3h-0.3c-0.1 0-0.3-0.1-0.3-0.3zm-11-23.3v10.5c0 0.1 0 0.1 0.1 0.1h5.9c1.4 0 2.6-0.5 3.4-1.5 0.9-1 1.3-2.3 1.3-3.9s-0.4-2.9-1.3-3.9-2-1.5-3.4-1.5h-5.9c-0.1 0.1-0.1 0.1-0.1 0.2z"/><path d="m597.7 53.7h-11.2c-0.1 0-0.1 0-0.1 0.1v10.6c0 0.1 0 0.1 0.1 0.1h7.7c0.2 0 0.4 0.1 0.4 0.4v0.2c0 0.2-0.1 0.4-0.4 0.4h-7.7c-0.1 0-0.1 0-0.1 0.1v10.6c0 0.1 0 0.1 0.1 0.1h11.2c0.2 0 0.4 0.1 0.4 0.4v0.3c0 0.2-0.1 0.4-0.4 0.4h-12c-0.2 0-0.4-0.1-0.4-0.4v-24c0-0.2 0.1-0.4 0.4-0.4h12c0.2 0 0.4 0.1 0.4 0.4v0.3c0 0.2-0.1 0.4-0.4 0.4z"/></g></svg>
