<?xml version="1.0" encoding="UTF-8" standalone="no"?>
<svg
   xmlns:dc="http://purl.org/dc/elements/1.1/"
   xmlns:cc="http://creativecommons.org/ns#"
   xmlns:rdf="http://www.w3.org/1999/02/22-rdf-syntax-ns#"
   xmlns:svg="http://www.w3.org/2000/svg"
   xmlns="http://www.w3.org/2000/svg"
   xmlns:sodipodi="http://sodipodi.sourceforge.net/DTD/sodipodi-0.dtd"
   xmlns:inkscape="http://www.inkscape.org/namespaces/inkscape"
   version="1.1"
   x="0px"
   y="0px"
   viewBox="0 0 44.000034 37.992622"
   id="svg4136"
   inkscape:version="0.91 r13725"
   sodipodi:docname="noun_1150166_cc.svg"
   width="44.000034"
   height="37.992622">
  <metadata
     id="metadata4150">
    <rdf:RDF>
      <cc:Work
         rdf:about="">
        <dc:format>image/svg+xml</dc:format>
        <dc:type
           rdf:resource="http://purl.org/dc/dcmitype/StillImage" />
        <dc:title></dc:title>
      </cc:Work>
    </rdf:RDF>
  </metadata>
  <defs
     id="defs4148" />
  <sodipodi:namedview
     pagecolor="#ffffff"
     bordercolor="#666666"
     borderopacity="1"
     objecttolerance="10"
     gridtolerance="10"
     guidetolerance="10"
     inkscape:pageopacity="0"
     inkscape:pageshadow="2"
     inkscape:window-width="1536"
     inkscape:window-height="811"
     id="namedview4146"
     showgrid="false"
     inkscape:zoom="5.136"
     inkscape:cx="22"
     inkscape:cy="6.4963149"
     inkscape:window-x="-8"
     inkscape:window-y="22"
     inkscape:window-maximized="1"
     inkscape:current-layer="svg4136"
     fit-margin-top="0"
     fit-margin-left="0"
     fit-margin-right="0"
     fit-margin-bottom="0" />
  <g
     transform="matrix(0,1,-1,0,1024.3622,-31.003689)"
     id="g4138"
     style="fill:#ffffff;fill-opacity:1">
    <path
       style="color:#000000;text-indent:0;text-transform:none;direction:ltr;block-progression:tb;baseline-shift:baseline;display:inline;overflow:visible;visibility:visible;fill:#ffffff;fill-opacity:1;stroke:none;marker:none;enable-background:accumulate"
       d="m 48.037567,981.07969 -15.999999,14.00036 c -1.31975,1.17028 -1.32821,3.04838 -0.29726,4.23482 1.03094,1.18643 3.04853,1.32773 4.23476,0.29655 l 11.031249,-9.6565 0,31.40718 c 0,1.6569 1.3432,3.0001 3,3.0001 1.6569,0 3,-1.3432 3,-3.0001 l 0,-31.40718 11.03125,9.6565 c 1.18623,1.03118 3.17403,0.86338 4.23476,-0.29655 1.11124,-1.21511 0.88932,-3.20405 -0.29726,-4.23482 l -16,-14.00036 c -1.31113,-0.98293 -2.78972,-0.9301 -3.9375,0 z"
       visibility="visible"
       display="inline"
       overflow="visible"
       id="path4140"
       inkscape:connector-curvature="0" />
  </g>
</svg>
